<svg width="36" height="36" viewBox="0 0 36 36" fill="none" xmlns="http://www.w3.org/2000/svg">
<g clip-path="url(#clip0_8770_596)">
<path d="M35.5 18C35.5 27.665 27.665 35.5 18 35.5C8.33502 35.5 0.5 27.665 0.5 18C0.5 8.33502 8.33502 0.5 18 0.5C27.665 0.5 35.5 8.33502 35.5 18Z" stroke="white"/>
<path d="M22.5654 16.2971L22.267 18.8029C22.2541 18.9193 22.1986 19.0268 22.1111 19.1046C22.0236 19.1825 21.9104 19.2252 21.7933 19.2245H19.188V26.6613C19.1887 26.7501 19.1542 26.8355 19.092 26.899C19.0299 26.9624 18.9452 26.9988 18.8564 27H16.2014C16.1573 26.9994 16.1137 26.9901 16.0731 26.9726C16.0325 26.9551 15.9958 26.9298 15.965 26.8982C15.9342 26.8665 15.91 26.8291 15.8936 26.788C15.8773 26.747 15.8692 26.7031 15.8699 26.6589L15.8841 19.2245H13.9112C13.7856 19.2245 13.6651 19.1746 13.5762 19.0857C13.4874 18.9969 13.4375 18.8764 13.4375 18.7508V16.245C13.4375 16.1194 13.4874 15.9989 13.5762 15.9101C13.6651 15.8212 13.7856 15.7713 13.9112 15.7713H15.8722V13.3413C15.8722 10.53 17.5443 9 19.9933 9H21.9993C22.125 9 22.2455 9.04991 22.3343 9.13874C22.4231 9.22757 22.473 9.34806 22.473 9.47368V11.5839C22.473 11.7096 22.4231 11.8301 22.3343 11.9189C22.2455 12.0077 22.125 12.0576 21.9993 12.0576H20.7701C19.4391 12.0789 19.188 12.7161 19.188 13.6682V15.7642H22.1036C22.1701 15.7654 22.2356 15.7805 22.2959 15.8086C22.3562 15.8368 22.4098 15.8773 22.4534 15.9276C22.497 15.9779 22.5295 16.0368 22.5488 16.1004C22.568 16.1641 22.5737 16.2311 22.5654 16.2971Z" fill="white"/>
</g>
<defs>
<clipPath id="clip0_8770_596">
<rect width="36" height="36" fill="white"/>
</clipPath>
</defs>
</svg>
