<svg width="36" height="36" viewBox="0 0 36 36" fill="none" xmlns="http://www.w3.org/2000/svg">
<g clip-path="url(#clip0_8770_606)">
<path d="M35.5 18C35.5 27.665 27.665 35.5 18 35.5C8.33502 35.5 0.5 27.665 0.5 18C0.5 8.33502 8.33502 0.5 18 0.5C27.665 0.5 35.5 8.33502 35.5 18Z" stroke="white"/>
<path d="M21.6379 9H14.3621C12.9406 9.00188 11.5778 9.56742 10.5726 10.5726C9.56742 11.5778 9.00188 12.9406 9 14.3621V21.6379C9.00188 23.0594 9.56742 24.4222 10.5726 25.4274C11.5778 26.4326 12.9406 26.9981 14.3621 27H21.6379C23.0596 26.9987 24.4228 26.4334 25.4281 25.4281C26.4334 24.4228 26.9987 23.0596 27 21.6379V14.3621C26.9981 12.9406 26.4326 11.5778 25.4274 10.5726C24.4222 9.56742 23.0594 9.00188 21.6379 9ZM25.1905 21.6379C25.1905 22.5801 24.8162 23.4837 24.15 24.15C23.4837 24.8162 22.5801 25.1905 21.6379 25.1905H14.3621C13.4199 25.1905 12.5163 24.8162 11.85 24.15C11.1838 23.4837 10.8095 22.5801 10.8095 21.6379V14.3621C10.8095 13.4199 11.1838 12.5163 11.85 11.85C12.5163 11.1838 13.4199 10.8095 14.3621 10.8095H21.6379C22.5801 10.8095 23.4837 11.1838 24.15 11.85C24.8162 12.5163 25.1905 13.4199 25.1905 14.3621V21.6379Z" fill="white"/>
<path d="M18.0024 13.3459C17.0813 13.3455 16.1807 13.6182 15.4146 14.1297C14.6485 14.6412 14.0514 15.3683 13.6986 16.2193C13.3459 17.0702 13.2535 18.0066 13.4331 18.9101C13.6127 19.8135 14.0562 20.6434 14.7076 21.2948C15.3589 21.9461 16.1888 22.3896 17.0922 22.5692C17.9957 22.7488 18.9321 22.6564 19.7831 22.3037C20.634 21.951 21.3612 21.3538 21.8726 20.5877C22.3841 19.8216 22.6569 18.921 22.6564 17.9999C22.6551 16.766 22.1644 15.583 21.2919 14.7104C20.4194 13.8379 19.2364 13.3472 18.0024 13.3459ZM18.0024 20.842C17.4403 20.842 16.8908 20.6753 16.4234 20.363C15.9561 20.0507 15.5918 19.6068 15.3767 19.0875C15.1616 18.5682 15.1053 17.9967 15.2149 17.4454C15.3246 16.8941 15.5953 16.3877 15.9928 15.9902C16.3902 15.5927 16.8967 15.3221 17.448 15.2124C17.9993 15.1027 18.5707 15.159 19.0901 15.3741C19.6094 15.5892 20.0533 15.9535 20.3656 16.4209C20.6779 16.8883 20.8445 17.4378 20.8445 17.9999C20.8445 18.7537 20.5451 19.4766 20.0121 20.0096C19.4791 20.5426 18.7562 20.842 18.0024 20.842Z" fill="white"/>
<path d="M22.6823 14.4972C23.318 14.4972 23.8334 13.9818 23.8334 13.3461C23.8334 12.7104 23.318 12.1951 22.6823 12.1951C22.0466 12.1951 21.5312 12.7104 21.5312 13.3461C21.5312 13.9818 22.0466 14.4972 22.6823 14.4972Z" fill="white"/>
</g>
<defs>
<clipPath id="clip0_8770_606">
<rect width="36" height="36" fill="white"/>
</clipPath>
</defs>
</svg>
