<svg width="0" height="0" class="hidden">

<symbol width="20" height="18" viewBox="0 0 20 18" xmlns="http://www.w3.org/2000/svg" id="telegram">
  <path d="M1.23934 7.61007L18.5943 0.918567C19.3998 0.627567 20.1033 1.11507 19.8423 2.33307L19.8438 2.33157L16.8888 16.2531C16.6698 17.2401 16.0833 17.4801 15.2628 17.0151L10.7628 13.6986L8.59233 15.7896C8.35233 16.0296 8.14984 16.2321 7.68483 16.2321L8.00434 11.6526L16.3443 4.11807C16.7073 3.79857 16.2633 3.61857 15.7848 3.93657L5.47834 10.4256L1.03534 9.03957C0.070835 8.73357 0.0498353 8.07507 1.23934 7.61007Z"/>
</symbol>

<symbol width="19" height="12" viewBox="0 0 19 12" xmlns="http://www.w3.org/2000/svg" id="vk">
  <path d="M18.2981 11.1441C17.8766 11.2033 15.8279 11.1441 15.7213 11.1441C15.1916 11.1495 14.6811 10.9461 14.3002 10.5781C13.8668 10.1612 13.476 9.70174 13.0616 9.26832C12.9357 9.13619 12.8004 9.0135 12.6566 8.90121C12.3179 8.64305 11.9839 8.70226 11.8252 9.10016C11.701 9.53142 11.6154 9.97291 11.5695 10.4194C11.5621 10.6074 11.4803 10.7849 11.3422 10.9128C11.2041 11.0407 11.021 11.1085 10.8329 11.1015C10.5534 11.1157 10.2739 11.1228 9.99682 11.1157C8.98879 11.1105 7.99627 10.867 7.10024 10.4052C6.13293 9.86461 5.28977 9.12715 4.62524 8.24042C3.56202 6.83647 2.64316 5.32884 1.88261 3.74042C1.84235 3.65989 1.04419 1.96174 1.02524 1.88358C0.975757 1.7723 0.971033 1.64624 1.01205 1.53157C1.05307 1.4169 1.13667 1.32244 1.2455 1.26779C1.38761 1.21331 4.01893 1.26779 4.06156 1.26779C4.2575 1.26592 4.4489 1.32674 4.60783 1.44135C4.76676 1.55597 4.88489 1.71839 4.94498 1.90489C5.43162 3.14555 6.09622 4.30879 6.91787 5.35805C7.03248 5.49947 7.16736 5.62318 7.31814 5.72516C7.357 5.76267 7.40517 5.78912 7.45768 5.80177C7.51018 5.81442 7.56512 5.81282 7.6168 5.79712C7.66847 5.78142 7.71502 5.7522 7.75162 5.71249C7.78822 5.67277 7.81355 5.624 7.82498 5.57121C7.92907 5.22878 7.99033 4.87476 8.00735 4.51726C8.02156 3.80674 8.00735 3.33305 7.96708 2.62253C7.9814 2.38039 7.89965 2.14238 7.73959 1.96014C7.57952 1.7779 7.35404 1.66614 7.11208 1.6491C6.90366 1.61358 6.87524 1.44305 7.01972 1.27253C7.29682 0.919631 7.68051 0.862789 8.09735 0.841473C8.72735 0.805947 9.35972 0.841473 9.99208 0.841473H10.1295C10.4071 0.840783 10.6841 0.868559 10.956 0.924367C11.1151 0.956938 11.2593 1.04002 11.3673 1.16122C11.4753 1.28243 11.5412 1.43528 11.5552 1.597C11.5872 1.77596 11.6014 1.95762 11.5979 2.13937C11.5813 2.91384 11.5434 3.68831 11.5339 4.46516C11.5283 4.772 11.5561 5.07854 11.6168 5.37937C11.7092 5.79147 11.991 5.89568 12.28 5.59489C12.64 5.20841 12.9702 4.79512 13.2676 4.35858C13.8024 3.56373 14.2427 2.70928 14.5797 1.81253C14.7621 1.35305 14.9018 1.25121 15.3968 1.25121H18.1892C18.3558 1.24843 18.5219 1.27079 18.6818 1.31753C18.7383 1.33258 18.791 1.35907 18.8368 1.39536C18.8826 1.43165 18.9204 1.47697 18.948 1.52849C18.9755 1.58002 18.9922 1.63666 18.9969 1.69489C19.0016 1.75312 18.9944 1.8117 18.9755 1.867C18.8122 2.46115 18.532 3.01674 18.1513 3.50121C17.5829 4.3041 16.986 5.08805 16.4034 5.86963C16.3297 5.97189 16.2624 6.07868 16.2021 6.18937C15.9842 6.58253 16.0008 6.80516 16.3158 7.13674C16.8226 7.65779 17.365 8.14805 17.8529 8.68331C18.2127 9.07335 18.5376 9.49417 18.8239 9.94095C19.1839 10.5188 18.9637 11.0494 18.2981 11.1441Z"/>
</symbol>

<symbol width="18" height="18" viewBox="0 0 18 18" xmlns="http://www.w3.org/2000/svg" id="insta">
  <path d="M12.6379 0H5.36211C3.94056 0.00187993 2.57778 0.567418 1.5726 1.5726C0.567418 2.57778 0.00187993 3.94056 0 5.36211V12.6379C0.00187993 14.0594 0.567418 15.4222 1.5726 16.4274C2.57778 17.4326 3.94056 17.9981 5.36211 18H12.6379C14.0596 17.9987 15.4228 17.4334 16.4281 16.4281C17.4334 15.4228 17.9987 14.0596 18 12.6379V5.36211C17.9981 3.94056 17.4326 2.57778 16.4274 1.5726C15.4222 0.567418 14.0594 0.00187993 12.6379 0ZM16.1905 12.6379C16.1905 13.5801 15.8162 14.4837 15.15 15.15C14.4837 15.8162 13.5801 16.1905 12.6379 16.1905H5.36211C4.41989 16.1905 3.51626 15.8162 2.85002 15.15C2.18377 14.4837 1.80947 13.5801 1.80947 12.6379V5.36211C1.80947 4.41989 2.18377 3.51626 2.85002 2.85002C3.51626 2.18377 4.41989 1.80947 5.36211 1.80947H12.6379C13.5801 1.80947 14.4837 2.18377 15.15 2.85002C15.8162 3.51626 16.1905 4.41989 16.1905 5.36211V12.6379Z"/>
  <path d="M9.00244 4.34595C8.0813 4.34548 7.18072 4.61823 6.41463 5.12969C5.64855 5.64115 5.05137 6.36835 4.69865 7.21928C4.34593 8.0702 4.25352 9.00663 4.43311 9.91009C4.6127 10.8135 5.05622 11.6434 5.70756 12.2948C6.3589 12.9461 7.18879 13.3896 8.09225 13.5692C8.9957 13.7488 9.93213 13.6564 10.7831 13.3037C11.634 12.951 12.3612 12.3538 12.8726 11.5877C13.3841 10.8216 13.6569 9.92103 13.6564 8.9999C13.6551 7.76598 13.1644 6.58296 12.2919 5.71044C11.4194 4.83793 10.2364 4.3472 9.00244 4.34595ZM9.00244 11.842C8.44032 11.842 7.89083 11.6753 7.42345 11.363C6.95607 11.0507 6.59178 10.6068 6.37667 10.0875C6.16156 9.56819 6.10528 8.99674 6.21494 8.44543C6.3246 7.89411 6.59529 7.3877 6.99276 6.99022C7.39024 6.59275 7.89665 6.32206 8.44797 6.2124C8.99928 6.10274 9.57074 6.15902 10.0901 6.37413C10.6094 6.58924 11.0533 6.95353 11.3656 7.42091C11.6779 7.88829 11.8445 8.43778 11.8445 8.9999C11.8445 9.75367 11.5451 10.4766 11.0121 11.0096C10.4791 11.5426 9.75621 11.842 9.00244 11.842Z"/>
  <path d="M13.6823 5.49717C14.318 5.49717 14.8334 4.98183 14.8334 4.34612C14.8334 3.71041 14.318 3.19507 13.6823 3.19507C13.0466 3.19507 12.5312 3.71041 12.5312 4.34612C12.5312 4.98183 13.0466 5.49717 13.6823 5.49717Z"/>
</symbol>

<symbol width="10" height="18" viewBox="0 0 10 18" xmlns="http://www.w3.org/2000/svg" id="facebook">
  <path d="M9.5654 7.2971L9.26697 9.80289C9.25409 9.91929 9.19856 10.0268 9.11108 10.1046C9.02361 10.1825 8.91039 10.2252 8.79329 10.2245H6.18803V17.6613C6.18866 17.7501 6.15415 17.8355 6.09204 17.899C6.02992 17.9624 5.94523 17.9988 5.85645 18H3.20145C3.15728 17.9994 3.11367 17.9901 3.0731 17.9726C3.03253 17.9551 2.9958 17.9298 2.96501 17.8982C2.93422 17.8665 2.90997 17.8291 2.89365 17.788C2.87732 17.747 2.86924 17.7031 2.86987 17.6589L2.88408 10.2245H0.911184C0.785555 10.2245 0.665072 10.1746 0.576239 10.0857C0.487406 9.9969 0.4375 9.87642 0.4375 9.75079V7.245C0.4375 7.11937 0.487406 6.99889 0.576239 6.91006C0.665072 6.82122 0.785555 6.77132 0.911184 6.77132H2.87224V4.34132C2.87224 1.53 4.54434 0 6.99329 0H8.99934C9.12497 0 9.24545 0.0499055 9.33429 0.138739C9.42312 0.227572 9.47303 0.348055 9.47303 0.473684V2.58395C9.47303 2.70958 9.42312 2.83006 9.33429 2.91889C9.24545 3.00773 9.12497 3.05763 8.99934 3.05763H7.77013C6.43908 3.07895 6.18803 3.71605 6.18803 4.66816V6.76421H9.10355C9.17007 6.76535 9.2356 6.78049 9.29588 6.80864C9.35615 6.83679 9.40982 6.87732 9.45339 6.9276C9.49696 6.97787 9.52945 7.03676 9.54875 7.10042C9.56805 7.16409 9.57372 7.2311 9.5654 7.2971Z"/>
</symbol>

<symbol width="20" height="14" viewBox="0 0 20 14" xmlns="http://www.w3.org/2000/svg" id="yotube">
  <path d="M18.5795 2.67063C18.2195 1.55273 17.0282 0.891943 15.9221 0.737995C11.9795 0.31878 8.00363 0.31878 4.06105 0.737995C2.96448 0.891943 1.77316 1.56221 1.41316 2.67063C0.851863 5.53045 0.851863 8.47212 1.41316 11.3319C1.78263 12.4475 2.97395 13.1106 4.08 13.2646C8.0227 13.6814 11.9984 13.6814 15.9411 13.2646C17.0376 13.1106 18.229 12.438 18.5889 11.3319C19.1471 8.47151 19.1439 5.52984 18.5795 2.67063ZM7.84816 10.4485V3.55168L13.4637 7.0001C11.5713 8.163 9.73342 9.2951 7.84816 10.4485Z"/>
</symbol>

<symbol width="12" height="18" viewBox="0 0 12 18" xmlns="http://www.w3.org/2000/svg" id="arrow_prev">
  <path d="M1.24129 8.10891L8.98102 0.369432C9.47336 -0.123146 10.2716 -0.123146 10.7637 0.369432C11.2558 0.861572 11.2558 1.65978 10.7637 2.15188L3.91524 9.00013L10.7635 15.8481C11.2556 16.3405 11.2556 17.1386 10.7635 17.6307C10.2714 18.1231 9.47316 18.1231 8.98082 17.6307L1.24109 9.89115C0.995021 9.64496 0.872124 9.32264 0.872125 9.00017C0.872125 8.67753 0.995259 8.35498 1.24129 8.10891Z"/>
</symbol>

<symbol width="12" height="19" viewBox="0 0 12 19" xmlns="http://www.w3.org/2000/svg" id="arrow_next">
  <path d="M10.7587 9.89256L3.01898 17.632C2.52664 18.1246 1.72839 18.1246 1.23629 17.632C0.744152 17.1399 0.744152 16.3417 1.23629 15.8496L8.08476 9.00134L1.23649 2.15332C0.744351 1.66098 0.744351 0.862859 1.23649 0.370719C1.72863 -0.12162 2.52684 -0.12162 3.01918 0.370719L10.7589 8.11031C11.005 8.3565 11.1279 8.67882 11.1279 9.0013C11.1279 9.32393 11.0047 9.64649 10.7587 9.89256Z"/>
</symbol>







</svg>