<svg width="0" height="0" class="hidden">
  <symbol xmlns="http://www.w3.org/2000/svg" viewBox="0 0 17 27" id="ic_accord_arr">
    <path d="M16.1271 12.7441C16.5876 13.1428 16.5876 13.8572 16.1271 14.2559L2.15465 26.3564C1.50701 26.9173 0.500001 26.4573 0.500001 25.6005L0.500002 1.39948C0.500002 0.542729 1.50701 0.0826764 2.15466 0.643553L16.1271 12.7441Z" fill="currentColor"></path>
  </symbol>


  
<symbol width="20" height="18" viewBox="0 0 20 18" xmlns="http://www.w3.org/2000/svg">
  <path d="M1.23934 7.61007L18.5943 0.918567C19.3998 0.627567 20.1033 1.11507 19.8423 2.33307L19.8438 2.33157L16.8888 16.2531C16.6698 17.2401 16.0833 17.4801 15.2628 17.0151L10.7628 13.6986L8.59233 15.7896C8.35233 16.0296 8.14983 16.2321 7.68483 16.2321L8.00434 11.6526L16.3443 4.11807C16.7073 3.79857 16.2633 3.61857 15.7848 3.93657L5.47834 10.4256L1.03534 9.03957C0.070835 8.73357 0.0498353 8.07507 1.23934 7.61007V7.61007Z"/>
</symbol>







</svg>