<svg width="0" height="0" class="hidden">
  <symbol xmlns="http://www.w3.org/2000/svg" viewBox="0 0 17 27" id="ic_accord_arr">
    <path d="M16.1271 12.7441C16.5876 13.1428 16.5876 13.8572 16.1271 14.2559L2.15465 26.3564C1.50701 26.9173 0.500001 26.4573 0.500001 25.6005L0.500002 1.39948C0.500002 0.542729 1.50701 0.0826764 2.15466 0.643553L16.1271 12.7441Z" fill="currentColor"></path>
  </symbol>


  
<symbol width="20" height="18" viewBox="0 0 20 18" xmlns="http://www.w3.org/2000/svg">
  <path d="M1.23934 7.61007L18.5943 0.918567C19.3998 0.627567 20.1033 1.11507 19.8423 2.33307L19.8438 2.33157L16.8888 16.2531C16.6698 17.2401 16.0833 17.4801 15.2628 17.0151L10.7628 13.6986L8.59233 15.7896C8.35233 16.0296 8.14983 16.2321 7.68483 16.2321L8.00434 11.6526L16.3443 4.11807C16.7073 3.79857 16.2633 3.61857 15.7848 3.93657L5.47834 10.4256L1.03534 9.03957C0.070835 8.73357 0.0498353 8.07507 1.23934 7.61007V7.61007Z"/>
</symbol>



<symbol width="12" height="18" viewBox="0 0 12 18" xmlns="http://www.w3.org/2000/svg" id="arrow_prev">
  <path d="M1.24129 8.10891L8.98102 0.369432C9.47336 -0.123146 10.2716 -0.123146 10.7637 0.369432C11.2558 0.861572 11.2558 1.65978 10.7637 2.15188L3.91524 9.00013L10.7635 15.8481C11.2556 16.3405 11.2556 17.1386 10.7635 17.6307C10.2714 18.1231 9.47316 18.1231 8.98082 17.6307L1.24109 9.89115C0.995021 9.64496 0.872124 9.32264 0.872125 9.00017C0.872125 8.67753 0.995259 8.35498 1.24129 8.10891Z" fill="white"/>
</symbol>

<symbol width="12" height="19" viewBox="0 0 12 19" xmlns="http://www.w3.org/2000/svg" id="arrow_next">
  <path d="M10.7587 9.89256L3.01898 17.632C2.52664 18.1246 1.72839 18.1246 1.23629 17.632C0.744152 17.1399 0.744152 16.3417 1.23629 15.8496L8.08476 9.00134L1.23649 2.15332C0.744351 1.66098 0.744351 0.862859 1.23649 0.370719C1.72863 -0.12162 2.52684 -0.12162 3.01918 0.370719L10.7589 8.11031C11.005 8.3565 11.1279 8.67882 11.1279 9.0013C11.1279 9.32393 11.0047 9.64649 10.7587 9.89256Z" fill="white"/>
</symbol>







</svg>