<svg width="36" height="36" viewBox="0 0 36 36" fill="none" xmlns="http://www.w3.org/2000/svg">
<g clip-path="url(#clip0_8827_969)">
<path d="M35.5 18C35.5 27.665 27.665 35.5 18 35.5C8.33502 35.5 0.5 27.665 0.5 18C0.5 8.33502 8.33502 0.5 18 0.5C27.665 0.5 35.5 8.33502 35.5 18Z" stroke="white"/>
<path d="M8.23934 17.6101L25.5943 10.9186C26.3998 10.6276 27.1033 11.1151 26.8423 12.3331L26.8438 12.3316L23.8888 26.2531C23.6698 27.2401 23.0833 27.4801 22.2628 27.0151L17.7628 23.6986L15.5923 25.7896C15.3523 26.0296 15.1498 26.2321 14.6848 26.2321L15.0043 21.6526L23.3443 14.1181C23.7073 13.7986 23.2633 13.6186 22.7848 13.9366L12.4783 20.4256L8.03534 19.0396C7.07083 18.7336 7.04984 18.0751 8.23934 17.6101V17.6101Z" fill="white"/>
</g>
<defs>
<clipPath id="clip0_8827_969">
<rect width="36" height="36" fill="white"/>
</clipPath>
</defs>
</svg>
