<svg width="36" height="36" viewBox="0 0 36 36" fill="none" xmlns="http://www.w3.org/2000/svg">
<g clip-path="url(#clip0_8770_614)">
<path d="M35.5 18C35.5 27.665 27.665 35.5 18 35.5C8.33502 35.5 0.5 27.665 0.5 18C0.5 8.33502 8.33502 0.5 18 0.5C27.665 0.5 35.5 8.33502 35.5 18Z" stroke="white"/>
<path d="M26.2981 23.1441C25.8766 23.2033 23.8279 23.1441 23.7213 23.1441C23.1916 23.1495 22.6811 22.9461 22.3002 22.5781C21.8668 22.1612 21.476 21.7017 21.0616 21.2683C20.9357 21.1362 20.8004 21.0135 20.6566 20.9012C20.3179 20.6431 19.9839 20.7023 19.8252 21.1002C19.701 21.5314 19.6154 21.9729 19.5695 22.4194C19.5621 22.6074 19.4803 22.7849 19.3422 22.9128C19.2041 23.0407 19.021 23.1085 18.8329 23.1015C18.5534 23.1157 18.2739 23.1228 17.9968 23.1157C16.9888 23.1105 15.9963 22.867 15.1002 22.4052C14.1329 21.8646 13.2898 21.1271 12.6252 20.2404C11.562 18.8365 10.6432 17.3288 9.88261 15.7404C9.84235 15.6599 9.04419 13.9617 9.02524 13.8836C8.97576 13.7723 8.97103 13.6462 9.01205 13.5316C9.05307 13.4169 9.13667 13.3224 9.2455 13.2678C9.38761 13.2133 12.0189 13.2678 12.0616 13.2678C12.2575 13.2659 12.4489 13.3267 12.6078 13.4414C12.7668 13.556 12.8849 13.7184 12.945 13.9049C13.4316 15.1456 14.0962 16.3088 14.9179 17.3581C15.0325 17.4995 15.1674 17.6232 15.3181 17.7252C15.357 17.7627 15.4052 17.7891 15.4577 17.8018C15.5102 17.8144 15.5651 17.8128 15.6168 17.7971C15.6685 17.7814 15.715 17.7522 15.7516 17.7125C15.7882 17.6728 15.8135 17.624 15.825 17.5712C15.9291 17.2288 15.9903 16.8748 16.0073 16.5173C16.0216 15.8067 16.0073 15.3331 15.9671 14.6225C15.9814 14.3804 15.8997 14.1424 15.7396 13.9601C15.5795 13.7779 15.354 13.6661 15.1121 13.6491C14.9037 13.6136 14.8752 13.4431 15.0197 13.2725C15.2968 12.9196 15.6805 12.8628 16.0973 12.8415C16.7273 12.8059 17.3597 12.8415 17.9921 12.8415H18.1295C18.4071 12.8408 18.6841 12.8686 18.956 12.9244C19.1151 12.9569 19.2593 13.04 19.3673 13.1612C19.4753 13.2824 19.5412 13.4353 19.5552 13.597C19.5872 13.776 19.6014 13.9576 19.5979 14.1394C19.5813 14.9138 19.5434 15.6883 19.5339 16.4652C19.5283 16.772 19.5561 17.0785 19.6168 17.3794C19.7092 17.7915 19.991 17.8957 20.28 17.5949C20.64 17.2084 20.9702 16.7951 21.2676 16.3586C21.8024 15.5637 22.2427 14.7093 22.5797 13.8125C22.7621 13.3531 22.9018 13.2512 23.3968 13.2512H26.1892C26.3558 13.2484 26.5219 13.2708 26.6818 13.3175C26.7383 13.3326 26.791 13.3591 26.8368 13.3954C26.8826 13.4317 26.9204 13.477 26.948 13.5285C26.9755 13.58 26.9922 13.6367 26.9969 13.6949C27.0016 13.7531 26.9944 13.8117 26.9755 13.867C26.8122 14.4612 26.532 15.0167 26.1513 15.5012C25.5829 16.3041 24.986 17.0881 24.4034 17.8696C24.3297 17.9719 24.2624 18.0787 24.2021 18.1894C23.9842 18.5825 24.0008 18.8052 24.3158 19.1367C24.8226 19.6578 25.365 20.1481 25.8529 20.6833C26.2127 21.0733 26.5376 21.4942 26.8239 21.9409C27.1839 22.5188 26.9637 23.0494 26.2981 23.1441Z" fill="white"/>
</g>
<defs>
<clipPath id="clip0_8770_614">
<rect width="36" height="36" fill="white"/>
</clipPath>
</defs>
</svg>
