<svg width="36" height="36" viewBox="0 0 36 36" fill="none" xmlns="http://www.w3.org/2000/svg">
<g clip-path="url(#clip0_8770_601)">
<path d="M35.5 18C35.5 27.665 27.665 35.5 18 35.5C8.33502 35.5 0.5 27.665 0.5 18C0.5 8.33502 8.33502 0.5 18 0.5C27.665 0.5 35.5 8.33502 35.5 18Z" stroke="white"/>
<path d="M26.5795 13.6706C26.2195 12.5527 25.0282 11.8919 23.9221 11.738C19.9795 11.3188 16.0036 11.3188 12.0611 11.738C10.9645 11.8919 9.77316 12.5622 9.41316 13.6706C8.85186 16.5305 8.85186 19.4721 9.41316 22.3319C9.78263 23.4475 10.9739 24.1106 12.08 24.2646C16.0227 24.6814 19.9984 24.6814 23.9411 24.2646C25.0376 24.1106 26.229 23.438 26.5889 22.3319C27.1471 19.4715 27.1439 16.5298 26.5795 13.6706ZM15.8482 21.4485V14.5517L21.4637 18.0001C19.5713 19.163 17.7334 20.2951 15.8482 21.4485Z" fill="white"/>
</g>
<defs>
<clipPath id="clip0_8770_601">
<rect width="36" height="36" fill="white"/>
</clipPath>
</defs>
</svg>
